<svg xmlns="http://www.w3.org/2000/svg" viewBox="-45 168.4 504.7 504.5"><path fill="#dcdcdc" d="M-36.3 185.7v487.2H451V185.7H-36.3zm259.8 377.7c0 48.7-28.5 70.8-70.1 70.8-37.6 0-59.4-19.5-70.5-42.9l38.3-23.2c7.4 13.1 14.1 24.2 30.2 24.2 15.4 0 25.2-6 25.2-29.5V403.1h47v160.3zm111.1 70.8c-43.6 0-71.8-20.8-85.6-48l38.2-22.1c10.1 16.4 23.2 28.5 46.3 28.5 19.5 0 31.9-9.7 31.9-23.2 0-16.1-12.8-21.8-34.2-31.2l-11.7-5c-33.9-14.4-56.4-32.5-56.4-70.8 0-35.2 26.8-62.1 68.8-62.1 29.9 0 51.3 10.4 66.8 37.6l-36.6 23.5c-8.1-14.4-16.8-20.1-30.2-20.1-13.8 0-22.5 8.7-22.5 20.1 0 14.1 8.7 19.8 28.9 28.5l11.7 5c39.9 17.1 62.4 34.6 62.4 73.8.1 42.4-33.2 65.5-77.8 65.5z"/></svg>