<svg xmlns="http://www.w3.org/2000/svg" width="255.308" height="239.541" viewBox="23.859 23.459 255.308 239.541"><g opacity=".8" fill="#dcdcdc"><path d="M110.936 101.934c-5.203-.19-10.578 0-10.578 0v41.783c2.754.268 4.48.14 8.562.09 13.598-.163 21.99-8.432 21.99-20.937 0-11.234-6.92-20.458-19.974-20.936z"/><path d="M26.37 23.46V263h250.285V23.46H26.37zm119.48 126.687c-8.73 8.88-18.9 14.137-36.258 14.865-4.795.2-9.233.25-9.233.25v38.883H75.01v-121s18.968-.5 34.582-.5c15.778 0 27.028 3.712 34.58 10.235 7.22 6.164 12.088 16.672 12.088 28.634s-3.694 21.75-10.41 28.633zm45.462 54.495c-8.835-.278-18.624-3.77-25.38-7.46v-20.127h.002c5.11 3.135 17.165 7.83 25.383 7.83 8.396 0 11.863-2.96 11.863-7.572 0-4.62-2.738-9.47-13.145-12.98-18.44-6.278-25.56-13.794-25.375-24.314 0-16.992 14.238-29.732 36.328-29.732 10.407 0 18.72 3.402 24.192 6.17v20.392c-4.02-2.218-15.612-7.17-23.278-7.17-6.758 0-10.59 2.77-10.59 7.382 0 4.248 3.47 6.464 14.424 10.344 16.976 5.908 24.096 14.584 24.277 27.88 0 16.804-12.954 30.167-38.7 29.356z"/></g></svg>