<svg xmlns="http://www.w3.org/2000/svg" width="194.949" height="155.333" viewBox="0 0 194.949 155.333"><path fill="#dcdcdc" d="M68.365 116.578c-18.843 0-36.872-.002-54.9.002-2.678 0-5.356.105-8.03.03-3.367-.097-5.4-2.24-5.403-5.764C.002 75.75-.006 40.656.004 5.56.004 1.64 1.58.007 5.236.007c52.86-.008 105.72-.008 158.58.002 3.382 0 5.3 1.814 5.308 5.25.045 17.29.02 34.578.02 52.416h-4.06c-13.39 0-26.78-.013-40.168.008-4.895.008-7.293 2.49-7.298 7.56-.018 16.926-.007 33.852-.007 51.226h-17.006c2.16 5.79 4.072 11.037 6.074 16.246 1.513 3.937.27 6.17-3.833 6.192-12.22.07-24.444.064-36.665-.02-4.162-.03-5.29-2.147-3.773-6.03 2.07-5.304 3.928-10.7 5.958-16.278z"/><path fill="#dcdcdc" d="M123.036 102.012c0-11.4-.004-22.798.003-34.197 0-3.07 1.26-4.834 4.38-4.828 16.47.032 32.944.036 49.416.037 2.934 0 4.66 1.475 4.697 4.597.12 10.012.05 13.235.118 20.22.02 1.912-.71 3.188-2.506 3.234-12.318-.01-12.087.14-12.087 7.53 0 0 0 5.447.135 39.27.01 2.567-.88 3.158-3.04 3.142-11.83-.086-23.66-.085-35.49-.114-3.946-.01-5.638-1.274-5.63-5.446.03-11.142.187-33.444.004-33.444z"/><path fill="#dcdcdc" d="M194.943 119.35c.004 5.708.008 9.993.003 15.702-.004 4.184-1.46 5.95-4.932 5.962-4.25.014-8.5.017-12.752 0-3.29-.013-4.78-1.487-4.816-5.448-.106-11.883-.098-22.343-.023-34.226.02-3.314 1.245-5.12 4.81-5.02 4.827.132 9.255-.184 13.892.005 2.433.1 3.797 2.178 3.808 5.55.02 5.824.006 11.65.01 17.474z"/></svg>